<svg xmlns="http://www.w3.org/2000/svg" width="234" height="17" fill="none" viewBox="0 0 234 17"><path fill="#B3B3B3" d="M169.731 3.76779H28.1206V4.78227H169.731V3.76779Z"/><path fill="#B3B3B3" d="M30.8688 1.82988L19.082 9.38452L19.3511 9.81281L31.1378 2.25817L30.8688 1.82988Z"/><path fill="#B3B3B3" d="M31.1343 2.24611V15.4343H31.6364V2.24611H31.1343Z"/><path fill="#B3B3B3" d="M206.39 8.5V15.5H206.892V8.5H206.39Z"/><path fill="#B3B3B3" d="M222.957 1.23163V15.4343H223.459V1.23163H222.957Z"/><path fill="#B3B3B3" d="M216.935 1.23163V8.33295H217.437V1.23163H216.935Z"/><path fill="#B3B3B3" d="M217.438 8.31208L206.39 8.36945L206.393 8.87668L217.44 8.81931L217.438 8.31208Z"/><path fill="#B3B3B3" d="M223.2 0.99753L217.2 1.02869L217.203 1.53592L223.203 1.50476L223.2 0.99753Z"/><path fill="#B3B3B3" d="M169.731 5.79672H28.1206V6.8112H169.731V5.79672Z"/><path fill="#B3B3B3" d="M169.731 7.82568H28.1206V8.84016H169.731V7.82568Z"/><path fill="#B3B3B3" d="M28.1212 9.34741H0V11.3764H28.1212V9.34741Z"/><path fill="#B3B3B3" d="M174.25 9.85464H28.1206V10.8691H174.25V9.85464Z"/><path fill="#B3B3B3" d="M215.93 11.8836H28.1206V12.898H215.93V11.8836Z"/><path fill="#B3B3B3" d="M233.004 14.927H0.00439453V15.9415H233.004V14.927Z"/><path fill="#B3B3B3" d="M232.999 5.28949H231.46V15.4785H232.999V5.28949Z"/></svg>