<svg xmlns="http://www.w3.org/2000/svg" width="16" height="16" fill="none" viewBox="0 0 16 16"><path fill="#AAA" fill-rule="evenodd" d="M12.0735 3.92964C12.3078 4.16396 12.3078 4.54386 12.0735 4.77817L4.78208 12.0696C4.54776 12.3039 4.16786 12.3039 3.93355 12.0696C3.69923 11.8353 3.69923 11.4554 3.93355 11.2211L11.225 3.92964C11.4593 3.69533 11.8392 3.69533 12.0735 3.92964Z" clip-rule="evenodd"/><path fill="#AAA" fill-rule="evenodd" d="M12.0743 12.0696C11.8399 12.3039 11.4601 12.3039 11.2257 12.0696L3.93432 4.77817C3.7 4.54386 3.7 4.16396 3.93432 3.92964C4.16863 3.69533 4.54853 3.69533 4.78285 3.92964L12.0743 11.2211C12.3086 11.4554 12.3086 11.8353 12.0743 12.0696Z" clip-rule="evenodd"/></svg>