<svg xmlns="http://www.w3.org/2000/svg" xmlns:svg="http://www.w3.org/2000/svg" id="error" width="200" height="200" x="0" y="0" enable-background="new 0 0 100 100" version="1.0" viewBox="0 0 200 200" xml:space="preserve"><metadata id="metadata19"/><g id="g4" transform="matrix(2.52,0,0,2.52,-26,-26)"><path id="path2" fill="gray" d="m 50,54.25 c -2.35,0 -4.25,-1.9 -4.25,-4.25 V 35 c 0,-2.35 1.9,-4.25 4.25,-4.25 2.35,0 4.25,1.9 4.25,4.25 v 15 c 0,2.35 -1.9,4.25 -4.25,4.25 z"/></g><g id="g8" transform="matrix(2.52,0,0,2.52,-26,-26)"><circle id="circle6" cx="50" cy="65" r="5" fill="gray"/></g><g id="g12" transform="matrix(2.52,0,0,2.52,-26,-26)"><path id="path10" fill="gray" d="M 50,89.25 C 28.36,89.25 10.75,71.64 10.75,50 10.75,28.36 28.36,10.75 50,10.75 71.64,10.75 89.25,28.36 89.25,50 89.25,71.64 71.64,89.25 50,89.25 Z m 0,-70 C 33.05,19.25 19.25,33.04 19.25,50 19.25,66.95 33.04,80.75 50,80.75 66.95,80.75 80.75,66.96 80.75,50 80.75,33.05 66.95,19.25 50,19.25 Z"/></g></svg>