<svg xmlns="http://www.w3.org/2000/svg" xmlns:svg="http://www.w3.org/2000/svg" xmlns:xlink="http://www.w3.org/1999/xlink" id="close_window" x="0" y="0" baseProfile="basic" version="1.1" viewBox="0 0 100 100" xml:space="preserve"><circle cx="50" cy="50" r="47.7" fill="#EEE"/><path fill="#ACACAC" d="M56.5,51.5l22.6-22.6c1.6-1.6,1.6-4.1,0-5.7c-1.6-1.6-4.1-1.6-5.7,0L50.8,45.9L28.2,23.3	c-1.6-1.6-4.1-1.6-5.7,0s-1.6,4.1,0,5.7l22.6,22.6L22.5,74.2c-1.6,1.6-1.6,4.1,0,5.7c0.8,0.8,1.8,1.2,2.8,1.2s2-0.4,2.8-1.2	l22.6-22.6l22.6,22.6c0.8,0.8,1.8,1.2,2.8,1.2s2-0.4,2.8-1.2c1.6-1.6,1.6-4.1,0-5.7L56.5,51.5z"/></svg>