<svg xmlns="http://www.w3.org/2000/svg" xmlns:xlink="http://www.w3.org/1999/xlink" id="close_window" x="0" y="0" baseProfile="basic" version="1.1" viewBox="0 0 100 100" xml:space="preserve"><g><g><circle cx="50" cy="50" r="40.3" fill="#EEE"/></g><path fill="#ACACAC" d="M54.3,51.3L74,31.6c1-1,1-2.6,0-3.6s-2.6-1-3.6,0L50.7,47.7L31,28c-1-1-2.6-1-3.6,0s-1,2.6,0,3.6l19.7,19.7 L27.4,71c-1,1-1,2.6,0,3.6c0.5,0.5,1.1,0.7,1.8,0.7s1.3-0.2,1.8-0.7l19.7-19.7l19.7,19.7c0.5,0.5,1.1,0.7,1.8,0.7 c0.6,0,1.3-0.2,1.8-0.7c1-1,1-2.6,0-3.6L54.3,51.3z"/></g></svg>