<svg xmlns="http://www.w3.org/2000/svg" xmlns:svg="http://www.w3.org/2000/svg" xmlns:xlink="http://www.w3.org/1999/xlink" id="minimalize_window" x="0" y="0" baseProfile="basic" version="1.1" viewBox="0 0 100 100" xml:space="preserve"><g><circle cx="50" cy="50" r="40.3" fill="#EEE"/></g><path fill="#009688" fill-rule="evenodd" d="M64.1,71.2l11.3-19.6c0.6-1,0.6-2.3,0-3.3L64.1,28.8	c-0.6-1-1.7-1.6-2.9-1.6H38.7c-1.2,0-2.3,0.6-2.9,1.6L24.6,48.4c-0.6,1-0.6,2.3,0,3.3l11.3,19.6c0.6,1,1.7,1.6,2.9,1.6h22.6	C62.5,72.9,63.6,72.2,64.1,71.2z M41.2,50c0,4.9,3.9,8.8,8.8,8.8s8.8-3.9,8.8-8.8s-3.9-8.8-8.8-8.8S41.2,45.1,41.2,50z" clip-rule="evenodd"/></svg>