<svg xmlns="http://www.w3.org/2000/svg" xmlns:svg="http://www.w3.org/2000/svg" xmlns:xlink="http://www.w3.org/1999/xlink" id="Layer_1" x="0" y="0" baseProfile="basic" version="1.1" viewBox="0 0 800 800" xml:space="preserve"><g><path fill="#FF6F00" d="M293.2,183.6h213.6c60.5,0,109.6,49.1,109.6,109.6v213.6c0,60.5-49.1,109.6-109.6,109.6H293.2 c-60.5,0-109.6-49.1-109.6-109.6V293.2C183.6,232.6,232.6,183.6,293.2,183.6z"/></g><path fill="#FF6F00" d="M613.4,3.9H186.6C85.9,3.9,3.9,85.9,3.9,186.6v426.7C3.9,714,85.9,796,186.6,796h426.7	C714,796,796,714,796,613.3V186.6C796.1,85.9,714.1,3.9,613.4,3.9z M750.7,186.6v426.7c0,75.7-61.6,137.4-137.4,137.4H186.6	c-75.7,0-137.4-61.6-137.4-137.4V186.6c0-75.7,61.6-137.4,137.4-137.4h426.7C689.1,49.3,750.7,110.9,750.7,186.6z"/></svg>