<svg xmlns="http://www.w3.org/2000/svg" xmlns:svg="http://www.w3.org/2000/svg" xmlns:xlink="http://www.w3.org/1999/xlink" id="minimalize_window" x="0" y="0" baseProfile="basic" version="1.1" viewBox="0 0 100 100" xml:space="preserve"><g><circle cx="50" cy="50" r="45.6" fill="#EEE"/></g><path fill="#009688" fill-rule="evenodd" d="M66,74l12.8-22.1c0.7-1.2,0.7-2.6,0-3.7L66,26	c-0.7-1.2-1.9-1.9-3.2-1.9H37.2c-1.3,0-2.6,0.7-3.2,1.9L21.2,48.1c-0.7,1.2-0.7,2.6,0,3.7L34,74c0.7,1.2,1.9,1.9,3.2,1.9h25.5	C64.1,75.8,65.3,75.1,66,74z M40.1,50c0,5.5,4.5,9.9,9.9,9.9s9.9-4.5,9.9-9.9c0-5.5-4.5-9.9-9.9-9.9S40.1,44.5,40.1,50z" clip-rule="evenodd"/></svg>