<svg xmlns="http://www.w3.org/2000/svg" width="10" height="10" fill="none" viewBox="0 0 10 10"><g clip-path="url(#clip0_8962_33592)"><path stroke="#ACACAC" stroke-linecap="round" stroke-width=".5" d="M5.40998 5.9611L6.10041 7.12399M6.10041 7.12399L5.28271 8.5231M6.10041 7.12399H7.60868"/><path stroke="#ACACAC" stroke-linecap="round" stroke-width=".5" d="M1.701 3.78053L2.39143 4.94342M2.39143 4.94342L1.57373 6.34253M2.39143 4.94342H3.8997"/><path stroke="#ACACAC" stroke-linecap="round" stroke-width=".5" d="M8.02424 4.13317L8.71467 5.29607M8.71467 5.29607L7.89697 6.69517M8.71467 5.29607H9.21686"/><path stroke="#ACACAC" stroke-linecap="round" stroke-width=".5" d="M2.17556 0.956352L2.56413 1.66289M2.56413 1.66289L2.00143 2.60728M2.56413 1.66289H4.0724"/><path stroke="#ACACAC" stroke-linecap="round" stroke-width=".5" d="M5.27863 1.72214L5.96906 2.88503M5.96906 2.88503L5.15137 4.28414M5.96906 2.88503H7.47733"/><path stroke="#ACACAC" stroke-linecap="round" stroke-width=".5" d="M4.56651 4.39914L4.95645 5.05592M4.95645 5.05592L4.49463 5.84611M4.95645 5.05592H5.80829"/><path stroke="#ACACAC" stroke-linecap="round" stroke-width=".5" d="M8.0836 2.17678L8.47354 2.83356M8.47354 2.83356L8.01172 3.62375M8.47354 2.83356H9.32538"/><path stroke="#ACACAC" stroke-linecap="round" stroke-width=".5" d="M0.996194 6.69518L1.38613 7.35196M1.38613 7.35196L0.924316 8.14214M1.38613 7.35196H2.23798"/><path stroke="#ACACAC" stroke-linecap="round" stroke-width=".5" d="M2.31338 7.75023L2.72347 8.4287M2.72347 8.4287L2.23779 9.245M2.72347 8.4287H4.05189"/><path stroke="#ACACAC" stroke-linecap="round" stroke-width=".5" d="M8.0836 6.30326L8.47354 6.96004M8.47354 6.96004L8.01172 7.75023M8.47354 6.96004H9.32538"/><path stroke="#ACACAC" stroke-linecap="round" stroke-width=".5" d="M3.63157 7.08708L3.81028 7.38808M3.81028 7.38808L3.59863 7.75023M3.81028 7.38808H4.20068"/><path stroke="#ACACAC" stroke-linecap="round" stroke-width=".5" d="M7.08958 4.72995L7.26829 5.03095M7.26829 5.03095L7.05664 5.3931M7.26829 5.03095H7.65869"/><line x1="4.322" x2="4.322" y1="1" y2="9.123" stroke="#262E30" stroke-width=".5"/><line x1="7.734" x2="7.734" y1="1" y2="9.123" stroke="#262E30" stroke-width=".5"/><path stroke="#262E30" stroke-linecap="round" stroke-width=".5" d="M6.31467 0.764671L0.924316 4.0664"/><path stroke="#262E30" stroke-linecap="round" stroke-width=".5" d="M9.12923 7.57411L6.40137 9.245"/><path stroke="#262E30" stroke-linecap="round" stroke-width=".5" d="M9.18444 3.40434L0.837891 8.51682"/><path stroke="#262E30" stroke-linecap="round" stroke-width=".5" d="M9.18542 6.54252L0.870535 2.02575"/><path stroke="#262E30" stroke-linecap="round" stroke-width=".5" d="M6.08917 9.16866L0.866802 6.3318"/><path stroke="#262E30" stroke-linecap="round" stroke-width=".5" d="M9.06026 2.32044L6.25726 0.797806"/><rect width="8.5" height="8.5" x=".75" y=".75" stroke="#262E30" stroke-width=".5" rx=".25"/></g><defs><clipPath id="clip0_8962_33592"><rect width="10" height="10" fill="#fff"/></clipPath></defs></svg>