<svg xmlns="http://www.w3.org/2000/svg" width="10" height="10" fill="none" viewBox="0 0 10 10"><g clip-path="url(#clip0_8986_35001)"><rect width="8.187" height="8.5" x=".907" y=".75" stroke="#262E30" stroke-width=".5" rx=".25"/><path stroke="#262E30" stroke-linecap="round" stroke-linejoin="round" stroke-width=".5" d="M4.5593 9.0991L4.88645 8.77173L3.67755 7.56283L2.46865 8.77173L1.25975 7.56283L2.46865 6.35393L1.25975 5.14503L1.0459 5.35888"/><path stroke="#262E30" stroke-linecap="round" stroke-linejoin="round" stroke-width=".5" d="M9.09251 3.07954L8.72727 2.71445L7.40518 4.03655L8.61429 5.24566L6.1461 7.71384L4.8491 6.41684L6.1461 5.11984L4.96227 3.93601L3.77845 5.11984L2.48142 3.82281L4.96227 1.34196L6.33477 2.71445L7.53133 1.51788L6.8388 0.825348M1.91485 0.825348L2.48142 1.39192L3.04799 0.825348M0.907227 2.12245L1.36058 2.5758L0.907227 3.02916"/><path stroke="#262E30" stroke-linecap="round" stroke-linejoin="round" stroke-width=".5" d="M7.65723 9.17465L7.33008 8.84731L8.9294 7.24799"/></g><defs><clipPath id="clip0_8986_35001"><rect width="10" height="10" fill="#fff"/></clipPath></defs></svg>