<svg xmlns="http://www.w3.org/2000/svg" width="45" height="44" fill="none" viewBox="0 0 45 44"><g clip-path="url(#clip0_10957_38888)"><path fill="#FEFFFE" d="M45 44H0V0H45V44Z"/><path fill="#D9D9D9" d="M0 8V4H4V8H0Z"/><path fill="#D9D9D9" d="M24 8V4H28V8H24Z"/><path fill="#D9D9D9" d="M0 40V36H4V40H0Z"/><path fill="#D9D9D9" d="M24 40V36H28V40H24Z"/><path fill="#D9D9D9" d="M0 16V12H4V16H0Z"/><path fill="#D9D9D9" d="M24 16V12H28V16H24Z"/><path fill="#D9D9D9" d="M0 24V20H4V24H0Z"/><path fill="#D9D9D9" d="M24 24V20H28V24H24Z"/><path fill="#D9D9D9" d="M4 28V24H8V28H4Z"/><path fill="#D9D9D9" d="M28 28V24H32V28H28Z"/><path fill="#D9D9D9" d="M0 32V28H4V32H0Z"/><path fill="#D9D9D9" d="M24 32V28H28V32H24Z"/><path fill="#D9D9D9" d="M4 4V0H8V4H4Z"/><path fill="#D9D9D9" d="M28 4V0H32V4H28Z"/><path fill="#D9D9D9" d="M4 36V32H8V36H4Z"/><path fill="#D9D9D9" d="M4 44V40H8V44H4Z"/><path fill="#D9D9D9" d="M28 36V32H32V36H28Z"/><path fill="#D9D9D9" d="M28 44V40H32V44H28Z"/><path fill="#D9D9D9" d="M4 12V8H8V12H4Z"/><path fill="#D9D9D9" d="M28 12V8H32V12H28Z"/><path fill="#D9D9D9" d="M4 20V16H8V20H4Z"/><path fill="#D9D9D9" d="M28 20V16H32V20H28Z"/><path fill="#D9D9D9" d="M8 8V4H12V8H8Z"/><path fill="#D9D9D9" d="M32 8V4H36V8H32Z"/><path fill="#D9D9D9" d="M40 8V4H44V8H40Z"/><path fill="#D9D9D9" d="M8 40V36H12V40H8Z"/><path fill="#D9D9D9" d="M32 40V36H36V40H32Z"/><path fill="#D9D9D9" d="M40 40V36H44V40H40Z"/><path fill="#D9D9D9" d="M8 16V12H12V16H8Z"/><path fill="#D9D9D9" d="M32 16V12H36V16H32Z"/><path fill="#D9D9D9" d="M40 16V12H44V16H40Z"/><path fill="#D9D9D9" d="M8 24V20H12V24H8Z"/><path fill="#D9D9D9" d="M32 24V20H36V24H32Z"/><path fill="#D9D9D9" d="M40 24V20H44V24H40Z"/><path fill="#D9D9D9" d="M12 28V24H16V28H12Z"/><path fill="#D9D9D9" d="M36 28V24H40V28H36Z"/><path fill="#D9D9D9" d="M44 28V24H48V28H44Z"/><path fill="#D9D9D9" d="M8 32V28H12V32H8Z"/><path fill="#D9D9D9" d="M32 32V28H36V32H32Z"/><path fill="#D9D9D9" d="M40 32V28H44V32H40Z"/><path fill="#D9D9D9" d="M12 4V0H16V4H12Z"/><path fill="#D9D9D9" d="M36 4V0H40V4H36Z"/><path fill="#D9D9D9" d="M44 4V0H48V4H44Z"/><path fill="#D9D9D9" d="M12 36V32H16V36H12Z"/><path fill="#D9D9D9" d="M12 44V40H16V44H12Z"/><path fill="#D9D9D9" d="M36 36V32H40V36H36Z"/><path fill="#D9D9D9" d="M44 36V32H48V36H44Z"/><path fill="#D9D9D9" d="M36 44V40H40V44H36Z"/><path fill="#D9D9D9" d="M44 44V40H48V44H44Z"/><path fill="#D9D9D9" d="M12 12V8H16V12H12Z"/><path fill="#D9D9D9" d="M36 12V8H40V12H36Z"/><path fill="#D9D9D9" d="M44 12V8H48V12H44Z"/><path fill="#D9D9D9" d="M12 20V16H16V20H12Z"/><path fill="#D9D9D9" d="M36 20V16H40V20H36Z"/><path fill="#D9D9D9" d="M44 20V16H48V20H44Z"/><path fill="#D9D9D9" d="M16 8V4H20V8H16Z"/><path fill="#D9D9D9" d="M16 40V36H20V40H16Z"/><path fill="#D9D9D9" d="M16 16V12H20V16H16Z"/><path fill="#D9D9D9" d="M16 24V20H20V24H16Z"/><path fill="#D9D9D9" d="M20 28V24H24V28H20Z"/><path fill="#D9D9D9" d="M16 32V28H20V32H16Z"/><path fill="#D9D9D9" d="M20 4V0H24V4H20Z"/><path fill="#D9D9D9" d="M20 36V32H24V36H20Z"/><path fill="#D9D9D9" d="M20 44V40H24V44H20Z"/><path fill="#D9D9D9" d="M20 12V8H24V12H20Z"/><path fill="#D9D9D9" d="M20 20V16H24V20H20Z"/></g><defs><clipPath id="clip0_10957_38888"><rect width="45" height="44" fill="#fff"/></clipPath></defs></svg>