<svg xmlns="http://www.w3.org/2000/svg" xmlns:svg="http://www.w3.org/2000/svg" id="svg5" width="300mm" height="200mm" version="1.1" viewBox="0 0 300 200" xml:space="preserve"><defs id="defs2"><clipPath id="clipPath16"><path id="path362" d="M 0,858.9 H 1207.6 V 0 H 0 Z"/></clipPath></defs><g id="g15224" style="display:inline"><g id="g15076" style="display:inline"><path style="fill:none;stroke:#000;stroke-width:.264583" id="path15018" d="M 10,0 V 200"/><path style="fill:none;stroke:#000;stroke-width:.264583" id="path15020" d="M 20,0 V 200"/><path style="fill:none;stroke:#000;stroke-width:.264583" id="path15022" d="M 30,0 V 200"/><path style="fill:none;stroke:#000;stroke-width:.264583" id="path15024" d="M 40,0 V 200"/><path style="fill:none;stroke:#000;stroke-width:.264583" id="path15026" d="M 50,0 V 200"/><path style="fill:none;stroke:#000;stroke-width:.264583" id="path15028" d="M 60,0 V 200"/><path style="fill:none;stroke:#000;stroke-width:.264583" id="path15030" d="M 70,0 V 200"/><path style="fill:none;stroke:#000;stroke-width:.264583" id="path15032" d="M 80,0 V 200"/><path style="fill:none;stroke:#000;stroke-width:.264583" id="path15034" d="M 90,0 V 200"/><path style="fill:none;stroke:#000;stroke-width:.264583" id="path15036" d="M 100,0 V 200"/><path style="fill:none;stroke:#000;stroke-width:.264583" id="path15038" d="M 110,0 V 200"/><path style="fill:none;stroke:#000;stroke-width:.264583" id="path15040" d="M 120,0 V 200"/><path style="fill:none;stroke:#000;stroke-width:.264583" id="path15042" d="M 130,0 V 200"/><path style="fill:none;stroke:#000;stroke-width:.264583" id="path15044" d="M 140,0 V 200"/><path style="display:inline;fill:#00112b;stroke:#06f;stroke-width:.258;stroke-dasharray:1.548,.258;stroke-dashoffset:0;stroke-opacity:1" id="path15048" d="M 160,10 V 200"/><path style="fill:none;stroke:red;stroke-width:.265;stroke-dasharray:1.59,.265;stroke-dashoffset:0;stroke-opacity:1" id="path15046" d="M 150,0 V 190"/><path style="fill:none;stroke:#000;stroke-width:.264583" id="path15050" d="M 170,0 V 200"/><path style="fill:none;stroke:#000;stroke-width:.264583" id="path15052" d="M 180,0 V 200"/><path style="fill:none;stroke:#000;stroke-width:.264583" id="path15054" d="M 190,0 V 200"/><path style="fill:none;stroke:#000;stroke-width:.264583" id="path15056" d="M 200,0 V 200"/><path style="fill:none;stroke:#000;stroke-width:.264583" id="path15058" d="M 210,0 V 200"/><path style="fill:none;stroke:#000;stroke-width:.264583" id="path15060" d="M 220,0 V 200"/><path style="fill:none;stroke:#000;stroke-width:.264583" id="path15062" d="M 230,0 V 200"/><path style="fill:none;stroke:#000;stroke-width:.264583" id="path15064" d="M 240,0 V 200"/><path style="fill:none;stroke:#000;stroke-width:.264583" id="path15066" d="M 250,0 V 200"/><path style="fill:none;stroke:#000;stroke-width:.264583" id="path15068" d="M 260,0 V 200"/><path style="fill:none;stroke:#000;stroke-width:.264583" id="path15070" d="M 270,0 V 200"/><path style="fill:none;stroke:#000;stroke-width:.264583" id="path15072" d="M 280,0 V 200"/><path style="fill:none;stroke:#000;stroke-width:.264583" id="path15074" d="M 290,0 V 200"/><g id="text16399" aria-label="MIRROR" style="font-size:10.5833px;line-height:1.25;letter-spacing:0;word-spacing:0;display:inline;stroke-width:.264583"><path d="m 143.06355,193.62239 h 0.51849 l 0.65629,1.75011 0.65973,-1.75011 h 0.51849 v 2.57176 h -0.33934 v -2.25826 l -0.66318,1.76389 h -0.34968 l -0.66318,-1.76389 v 2.25826 h -0.33762 z" style="font-size:3.52778px;-inkscape-font-specification:'sans-serif, Normal';fill:red" id="path17403"/><path d="m 146.10729,193.62239 h 0.34796 v 2.57176 h -0.34796 z" style="font-size:3.52778px;-inkscape-font-specification:'sans-serif, Normal';fill:red" id="path17405"/><path d="m 148.36728,194.98837 q 0.11196,0.0379 0.21704,0.16192 0.10679,0.12402 0.21359,0.34106 l 0.35313,0.7028 h -0.3738 l -0.329,-0.65973 q -0.12747,-0.25839 -0.24805,-0.34279 -0.11886,-0.0844 -0.32556,-0.0844 h -0.37896 v 1.08693 h -0.34796 v -2.57176 h 0.78548 q 0.44098,0 0.65802,0.18431 0.21704,0.18431 0.21704,0.55638 0,0.24288 -0.11369,0.40308 -0.11197,0.1602 -0.32728,0.22221 z m -0.87161,-1.08004 v 0.91295 h 0.43752 q 0.2515,0 0.37896,-0.11541 0.1292,-0.11713 0.1292,-0.34279 0,-0.22565 -0.1292,-0.33934 -0.12746,-0.11541 -0.37896,-0.11541 z" style="font-size:3.52778px;-inkscape-font-specification:'sans-serif, Normal';fill:red" id="path17407"/><path d="m 150.81846,194.98837 q 0.11197,0.0379 0.21704,0.16192 0.1068,0.12402 0.2136,0.34106 l 0.35312,0.7028 h -0.37379 l -0.32901,-0.65973 q -0.12747,-0.25839 -0.24804,-0.34279 -0.11886,-0.0844 -0.32557,-0.0844 h -0.37896 v 1.08693 h -0.34795 v -2.57176 h 0.78548 q 0.44097,0 0.65801,0.18431 0.21705,0.18431 0.21705,0.55638 0,0.24288 -0.11369,0.40308 -0.11197,0.1602 -0.32729,0.22221 z m -0.87161,-1.08004 v 0.91295 h 0.43753 q 0.25149,0 0.37896,-0.11541 0.12919,-0.11713 0.12919,-0.34279 0,-0.22565 -0.12919,-0.33934 -0.12747,-0.11541 -0.37896,-0.11541 z" style="font-size:3.52778px;-inkscape-font-specification:'sans-serif, Normal';fill:red" id="path17409"/><path d="m 153.09395,193.85838 q -0.37896,0 -0.60289,0.28249 -0.22221,0.2825 -0.22221,0.76998 0,0.48576 0.22221,0.76826 0.22393,0.2825 0.60289,0.2825 0.37896,0 0.59945,-0.2825 0.22221,-0.2825 0.22221,-0.76826 0,-0.48748 -0.22221,-0.76998 -0.22049,-0.28249 -0.59945,-0.28249 z m 0,-0.2825 q 0.54088,0 0.86472,0.36346 0.32384,0.36173 0.32384,0.97151 0,0.60806 -0.32384,0.97152 -0.32384,0.36174 -0.86472,0.36174 -0.5426,0 -0.86816,-0.36174 -0.32384,-0.36173 -0.32384,-0.97152 0,-0.60978 0.32384,-0.97151 0.32556,-0.36346 0.86816,-0.36346 z" style="font-size:3.52778px;-inkscape-font-specification:'sans-serif, Normal';fill:red" id="path17411"/><path d="m 156.0464,194.98837 q 0.11196,0.0379 0.21704,0.16192 0.1068,0.12402 0.2136,0.34106 l 0.35312,0.7028 h -0.37379 l -0.32901,-0.65973 q -0.12747,-0.25839 -0.24805,-0.34279 -0.11885,-0.0844 -0.32556,-0.0844 h -0.37896 v 1.08693 h -0.34796 v -2.57176 h 0.78549 q 0.44097,0 0.65801,0.18431 0.21704,0.18431 0.21704,0.55638 0,0.24288 -0.11369,0.40308 -0.11196,0.1602 -0.32728,0.22221 z m -0.87161,-1.08004 v 0.91295 h 0.43753 q 0.25149,0 0.37896,-0.11541 0.12919,-0.11713 0.12919,-0.34279 0,-0.22565 -0.12919,-0.33934 -0.12747,-0.11541 -0.37896,-0.11541 z" style="font-size:3.52778px;-inkscape-font-specification:'sans-serif, Normal';fill:red" id="path17413"/></g><g id="text16407" aria-label="COPY" style="font-size:10.5833px;line-height:1.25;letter-spacing:0;word-spacing:0;display:inline;fill:#06f;stroke-width:.264583"><path d="m 157.69645,3.740946 v 0.3669029 q -0.1757,-0.1636422 -0.37552,-0.244602 -0.19809,-0.08096 -0.42202,-0.08096 -0.44097,0 -0.67524,0.2704401 -0.23427,0.2687176 -0.23427,0.7785921 0,0.5081519 0.23427,0.7785921 0.23427,0.2687176 0.67524,0.2687176 0.22393,0 0.42202,-0.08096 0.19982,-0.08096 0.37552,-0.2446019 v 0.3634578 q -0.18259,0.1240235 -0.38757,0.1860353 -0.20326,0.062012 -0.43064,0.062012 -0.58394,0 -0.91984,-0.3565676 -0.3359,-0.3582902 -0.3359,-0.9766852 0,-0.6201176 0.3359,-0.9766852 0.3359,-0.3582902 0.91984,-0.3582902 0.23082,0 0.43408,0.062012 0.20498,0.060289 0.38413,0.1825902 z" style="font-size:3.52778px;-inkscape-font-specification:'sans-serif, Normal'" id="path17394"/><path d="m 159.27775,3.7788421 q -0.37896,0 -0.60289,0.282498 -0.22221,0.282498 -0.22221,0.7699793 0,0.4857588 0.22221,0.7682568 0.22393,0.282498 0.60289,0.282498 0.37896,0 0.59945,-0.282498 0.22221,-0.282498 0.22221,-0.7682568 0,-0.4874813 -0.22221,-0.7699793 -0.22049,-0.282498 -0.59945,-0.282498 z m 0,-0.2824981 q 0.54088,0 0.86472,0.3634578 0.32384,0.3617353 0.32384,0.9715176 0,0.6080598 -0.32384,0.9715176 -0.32384,0.3617352 -0.86472,0.3617352 -0.5426,0 -0.86816,-0.3617352 -0.32384,-0.3617353 -0.32384,-0.9715176 0,-0.6097823 0.32384,-0.9715176 0.32556,-0.3634578 0.86816,-0.3634578 z" style="font-size:3.52778px;-inkscape-font-specification:'sans-serif, Normal'" id="path17396"/><path d="m 161.35859,3.828796 v 0.9663499 h 0.43753 q 0.24288,0 0.37551,-0.1257461 0.13264,-0.1257461 0.13264,-0.3582902 0,-0.2308215 -0.13264,-0.3565676 -0.13263,-0.125746 -0.37551,-0.125746 z m -0.34796,-0.2859431 h 0.78549 q 0.43236,0 0.65284,0.1963705 0.22221,0.1946481 0.22221,0.5718862 0,0.3806833 -0.22221,0.5753314 -0.22048,0.194648 -0.65284,0.194648 h -0.43753 v 1.0335293 h -0.34796 z" style="font-size:3.52778px;-inkscape-font-specification:'sans-serif, Normal'" id="path17398"/><path d="m 162.70734,3.5428529 h 0.3738 l 0.71313,1.057645 0.70797,-1.057645 h 0.37379 l -0.9095,1.3470332 v 1.2247322 h -0.34968 V 4.8898861 Z" style="font-size:3.52778px;-inkscape-font-specification:'sans-serif, Normal'" id="path17400"/></g></g><g id="g15116" style="display:inline"><path style="fill:none;stroke:#000;stroke-width:.264583" id="path15078" d="M 0,10 H 300"/><path style="fill:none;stroke:#000;stroke-width:.264583" id="path15080" d="M 0,20 H 300"/><path style="fill:none;stroke:#000;stroke-width:.264583" id="path15082" d="M 0,30 H 300"/><path style="fill:none;stroke:#000;stroke-width:.264583" id="path15084" d="M 0,40 H 300"/><path style="fill:none;stroke:#000;stroke-width:.264583" id="path15086" d="M 0,50 H 300"/><path style="fill:none;stroke:#000;stroke-width:.264583" id="path15088" d="M 0,60 H 300"/><path style="fill:none;stroke:#000;stroke-width:.264583" id="path15090" d="M 0,70 H 300"/><path style="fill:none;stroke:#000;stroke-width:.264583" id="path15092" d="M 0,80 H 300"/><path style="fill:none;stroke:#000;stroke-width:.264583" id="path15094" d="M 0,90 H 300"/><path style="fill:none;stroke:#000;stroke-width:.264583" id="path15096" d="M 0,100 H 300"/><path style="fill:none;stroke:#000;stroke-width:.264583" id="path15098" d="M 0,110 H 300"/><path style="fill:none;stroke:#000;stroke-width:.264583" id="path15100" d="M 0,120 H 300"/><path style="fill:none;stroke:#000;stroke-width:.264583" id="path15102" d="M 0,130 H 300"/><path style="fill:none;stroke:#000;stroke-width:.264583" id="path15104" d="M 0,140 H 300"/><path style="fill:none;stroke:#000;stroke-width:.264583" id="path15106" d="M 0,150 H 300"/><path style="fill:none;stroke:#000;stroke-width:.264583" id="path15108" d="M 0,160 H 300"/><path style="fill:none;stroke:#000;stroke-width:.264583" id="path15110" d="M 0,170 H 300"/><path style="fill:none;stroke:#000;stroke-width:.264583" id="path15112" d="M 0,180 H 300"/><path style="fill:none;stroke:#000;stroke-width:.264583" id="path15114" d="M 0,190 H 300"/></g><g id="g15178" style="display:none"><path style="fill:none;stroke:#000;stroke-width:.079375" id="path15118" d="M 5,0 V 200"/><path style="fill:none;stroke:#000;stroke-width:.079375" id="path15120" d="M 15,0 V 200"/><path style="fill:none;stroke:#000;stroke-width:.079375" id="path15122" d="M 25,0 V 200"/><path style="fill:none;stroke:#000;stroke-width:.079375" id="path15124" d="M 35,0 V 200"/><path style="fill:none;stroke:#000;stroke-width:.079375" id="path15126" d="M 45,0 V 200"/><path style="fill:none;stroke:#000;stroke-width:.079375" id="path15128" d="M 55,0 V 200"/><path style="fill:none;stroke:#000;stroke-width:.079375" id="path15130" d="M 65,0 V 200"/><path style="fill:none;stroke:#000;stroke-width:.079375" id="path15132" d="M 75,0 V 200"/><path style="fill:none;stroke:#000;stroke-width:.079375" id="path15134" d="M 85,0 V 200"/><path style="fill:none;stroke:#000;stroke-width:.079375" id="path15136" d="M 95,0 V 200"/><path style="fill:none;stroke:#000;stroke-width:.079375" id="path15138" d="M 105,0 V 200"/><path style="fill:none;stroke:#000;stroke-width:.079375" id="path15140" d="M 115,0 V 200"/><path style="fill:none;stroke:#000;stroke-width:.079375" id="path15142" d="M 125,0 V 200"/><path style="fill:none;stroke:#000;stroke-width:.079375" id="path15144" d="M 135,0 V 200"/><path style="fill:none;stroke:#000;stroke-width:.079375" id="path15146" d="M 145,0 V 200"/><path style="fill:none;stroke:#000;stroke-width:.079375" id="path15148" d="M 155,0 V 200"/><path style="fill:none;stroke:#000;stroke-width:.079375" id="path15150" d="M 165,0 V 200"/><path style="fill:none;stroke:#000;stroke-width:.079375" id="path15152" d="M 175,0 V 200"/><path style="fill:none;stroke:#000;stroke-width:.079375" id="path15154" d="M 185,0 V 200"/><path style="fill:none;stroke:#000;stroke-width:.079375" id="path15156" d="M 195,0 V 200"/><path style="fill:none;stroke:#000;stroke-width:.079375" id="path15158" d="M 205,0 V 200"/><path style="fill:none;stroke:#000;stroke-width:.079375" id="path15160" d="M 215,0 V 200"/><path style="fill:none;stroke:#000;stroke-width:.079375" id="path15162" d="M 225,0 V 200"/><path style="fill:none;stroke:#000;stroke-width:.079375" id="path15164" d="M 235,0 V 200"/><path style="fill:none;stroke:#000;stroke-width:.079375" id="path15166" d="M 245,0 V 200"/><path style="fill:none;stroke:#000;stroke-width:.079375" id="path15168" d="M 255,0 V 200"/><path style="fill:none;stroke:#000;stroke-width:.079375" id="path15170" d="M 265,0 V 200"/><path style="fill:none;stroke:#000;stroke-width:.079375" id="path15172" d="M 275,0 V 200"/><path style="fill:none;stroke:#000;stroke-width:.079375" id="path15174" d="M 285,0 V 200"/><path style="fill:none;stroke:#000;stroke-width:.079375" id="path15176" d="M 295,0 V 200"/></g><g id="g15220" style="display:none"><path style="fill:none;stroke:#000;stroke-width:.079375" id="path15180" d="M 0,5 H 300"/><path style="fill:none;stroke:#000;stroke-width:.079375" id="path15182" d="M 0,15 H 300"/><path style="fill:none;stroke:#000;stroke-width:.079375" id="path15184" d="M 0,25 H 300"/><path style="fill:none;stroke:#000;stroke-width:.079375" id="path15186" d="M 0,35 H 300"/><path style="fill:none;stroke:#000;stroke-width:.079375" id="path15188" d="M 0,45 H 300"/><path style="fill:none;stroke:#000;stroke-width:.079375" id="path15190" d="M 0,55 H 300"/><path style="fill:none;stroke:#000;stroke-width:.079375" id="path15192" d="M 0,65 H 300"/><path style="fill:none;stroke:#000;stroke-width:.079375" id="path15194" d="M 0,75 H 300"/><path style="fill:none;stroke:#000;stroke-width:.079375" id="path15196" d="M 0,85 H 300"/><path style="fill:none;stroke:#000;stroke-width:.079375" id="path15198" d="M 0,95 H 300"/><path style="fill:none;stroke:#000;stroke-width:.079375" id="path15200" d="M 0,105 H 300"/><path style="fill:none;stroke:#000;stroke-width:.079375" id="path15202" d="M 0,115 H 300"/><path style="fill:none;stroke:#000;stroke-width:.079375" id="path15204" d="M 0,125 H 300"/><path style="fill:none;stroke:#000;stroke-width:.079375" id="path15206" d="M 0,135 H 300"/><path style="fill:none;stroke:#000;stroke-width:.079375" id="path15208" d="M 0,145 H 300"/><path style="fill:none;stroke:#000;stroke-width:.079375" id="path15210" d="M 0,155 H 300"/><path style="fill:none;stroke:#000;stroke-width:.079375" id="path15212" d="M 0,165 H 300"/><path style="fill:none;stroke:#000;stroke-width:.079375" id="path15214" d="M 0,175 H 300"/><path style="fill:none;stroke:#000;stroke-width:.079375" id="path15216" d="M 0,185 H 300"/><path style="fill:none;stroke:#000;stroke-width:.079375" id="path15218" d="M 0,195 H 300"/></g><rect id="rect15222" width="300" height="200" x="0" y="0" style="fill:none;stroke:#000;stroke-width:3.67183e-17"/></g><g id="layer3" style="display:inline"><rect style="fill:#fff;stroke-width:.154526" id="rect527" width=".782" height="10.431" x="279.558" y="186.861"/><g id="text611" aria-label="J1" style="font-size:9.813px;line-height:1.25;font-family:'Heiti SC';-inkscape-font-specification:'Heiti SC';display:inline;fill:#fff;stroke-width:.229992"><path id="path3063" d="m 287.28671,193.04701 q 0,0.99111 -0.157,1.47195 -0.1472,0.48083 -0.58878,0.77522 -0.43178,0.28458 -0.94205,0.28458 -0.50046,0 -0.93224,-0.15701 -0.42196,-0.15701 -1.00092,-0.65747 l 0.4514,-0.66728 q 0.56915,0.41214 0.86354,0.54952 0.29439,0.13739 0.56915,0.13739 0.28458,0 0.52009,-0.20608 0.23551,-0.20607 0.29439,-0.5299 0.0687,-0.33364 0.0687,-1.03036 v -4.79856 h 0.85373 z"/><path id="path3065" d="m 291.33947,195.40213 h -0.83411 v -6.35883 h -1.16774 l 0.51027,-0.82429 h 1.49158 z"/></g><g id="g17284" clip-path="url(#clipPath16)" transform="matrix(0.08049864,0,0,-0.08049864,199.09857,227.00105)" style="display:inline;fill:#fff"><g id="g17250" transform="translate(363.26,466.65)" style="fill:#fff"><path id="path17248" fill="#3f3b3a" d="m 0,0 c -20.922,0 -37.883,-16.96 -37.883,-37.883 v -37.213 h 15.153 v 37.213 h -0.002 c 0,12.555 10.178,22.733 22.732,22.733 12.555,0 22.732,-10.178 22.732,-22.733 h -0.003 v -37.213 h 15.154 v 37.213 C 37.883,-16.96 20.922,0 0,0" style="fill:#fff"/></g><g id="g17254" transform="translate(445.58,406.04)" style="fill:#fff"><path id="path17252" fill="#3f3b3a" d="m 0,0 c -12.554,0 -22.73,10.177 -22.73,22.729 0,12.554 10.176,22.73 22.73,22.73 12.553,0 22.729,-10.176 22.729,-22.73 C 22.729,10.177 12.553,0 0,0 M 22.729,58.244 V 53.037 C 16.398,57.792 8.529,60.612 0,60.612 c -20.923,0 -37.883,-16.96 -37.883,-37.883 0,-20.922 16.96,-37.882 37.883,-37.882 8.529,0 16.398,2.82 22.729,7.576 v -6.906 h 15.154 v 72.727 z" style="fill:#fff"/></g><g id="g17258" transform="translate(532.26,406.04)" style="fill:#fff"><path id="path17256" fill="#3f3b3a" d="m 0,0 c -12.553,0 -22.729,10.177 -22.729,22.729 0,12.554 10.176,22.73 22.729,22.73 12.553,0 22.73,-10.176 22.73,-22.73 C 22.73,10.177 12.553,0 0,0 m 0,60.612 c -20.922,0 -37.882,-16.96 -37.882,-37.883 v -69.2 h 15.153 v 38.894 c 6.331,-4.756 14.2,-7.576 22.729,-7.576 20.922,0 37.883,16.96 37.883,37.882 0,20.923 -16.961,37.883 -37.883,37.883" style="fill:#fff"/></g><g id="g17262" transform="translate(734.31,398.46)" style="fill:#fff"><path id="path17260" fill="#3f3b3a" d="m 0,0 c -16.737,0 -30.306,13.568 -30.306,30.306 0,16.737 13.569,30.306 30.306,30.306 16.737,0 30.306,-13.569 30.306,-30.306 C 30.306,13.568 16.737,0 0,0 M 30.306,65.82 V 53.037 C 23.394,62.237 12.393,68.188 0,68.188 c -20.922,0 -37.883,-16.959 -37.883,-37.882 0,-20.922 16.961,-37.883 37.883,-37.883 12.393,0 23.394,5.952 30.306,15.152 V -6.907 h 7.577 V 65.82 Z" style="fill:#fff"/></g><g id="g17266" transform="translate(691.21,436.81)" style="fill:#fff"><path id="path17264" fill="#3f3b3a" d="m 0,0 c -0.25,16.522 -13.713,29.841 -30.294,29.841 -11.414,0 -21.35,-6.312 -26.519,-15.634 -5.168,9.322 -15.104,15.634 -26.517,15.634 -16.582,0 -30.045,-13.319 -30.295,-29.841 h -0.012 v -45.255 h 7.577 v 44.79 c 0,12.553 10.176,22.729 22.73,22.729 12.553,0 22.729,-10.176 22.729,-22.729 v -44.79 h 7.577 v 44.79 c 0,12.553 10.176,22.729 22.73,22.729 12.553,0 22.73,-10.176 22.73,-22.729 v -44.79 H 0.012 V 0 Z" style="fill:#fff"/></g><g id="g17270" transform="translate(856.21,455.02)" style="fill:#fff"><path id="path17268" fill="#3f3b3a" d="M 0,0 C 13.382,7.726 30.204,4.078 39.292,-7.935 L -12.777,-37.997 C -18.635,-24.118 -13.384,-7.727 0,0 m 45.088,-30.903 c -1.362,-8.745 -6.52,-16.819 -14.782,-21.589 -13.384,-7.727 -30.203,-4.079 -39.294,7.934 L 49.691,-10.68 C 49.175,-9.54 48.6,-8.413 47.96,-7.305 37.499,10.814 14.331,17.022 -3.789,6.561 -21.907,-3.9 -28.115,-27.069 -17.655,-45.188 c 10.461,-18.119 33.631,-24.327 51.749,-13.865 12.12,6.997 18.901,19.681 18.937,32.735 z" style="fill:#fff"/></g><g id="g17274" transform="translate(839.22,466.66)" style="fill:#fff"><path id="path17272" fill="#3f3b3a" d="m 0,0 h -10.716 l -37.79,-37.79 v 70.377 h -7.577 v -107.69 h 7.577 v 26.598 l 5.422,5.421 32.02,-32.019 H -0.35 l -37.376,37.376 z" style="fill:#fff"/></g><g id="g17278" transform="translate(917.36,428.77)" style="fill:#fff"><path id="path17276" fill="#3f3b3a" d="m 0,0 c 0,-0.02 0.003,-0.039 0.003,-0.059 v -37.154 h 7.575 v 37.154 h 10e-4 c 0,0.02 -10e-4,0.039 -10e-4,0.059 0,16.738 13.568,30.306 30.306,30.306 v 7.577 C 16.962,37.883 0,20.923 0,0" style="fill:#fff"/></g><g id="g17282" transform="translate(280.65,437.38)" style="fill:#fff"><path id="path17280" fill="#3f3b3a" d="m 0,0 c -6.641,1.159 -10.845,4.978 -10.218,8.245 0.893,4.658 8.079,5.869 17.803,6.172 12.995,0.405 23.732,-4.078 23.732,-4.078 0,0 3.992,9.327 5.511,12.872 -11.468,5.271 -23.392,6.442 -29.098,6.442 -19.827,0 -35.061,-10.557 -35.061,-22.404 0,-12.88 15.262,-21.176 29.965,-22.574 12.015,-1.144 19.391,-5.593 18.967,-9.818 -0.374,-3.73 -6.558,-5.581 -13.394,-5.903 -5.915,-0.279 -17.31,-0.045 -29.296,4.451 -0.87,-2.064 -4.12,-9.767 -5.504,-13.048 3.022,-1.511 18.332,-8.378 38.223,-6.51 18.771,1.762 29.949,14.058 28.603,24.009 C 37.597,-2.648 11.585,-2.022 0,0" style="fill:#fff"/></g></g></g><g id="layer1" style="display:inline" transform="translate(0.39999965,-2.4459998)"><path style="fill:none;fill-opacity:1;stroke:#ff0;stroke-width:.264999;stroke-linecap:round;stroke-linejoin:miter;stroke-miterlimit:4;stroke-dasharray:none;stroke-opacity:1" id="path1349" d="M 28.425224,339.54387 39.555886,320.265 50.686546,339.54387 Z" transform="matrix(0.77080989,0,0,0.77080989,-11.733546,-62.159169)"/><path style="fill:none;fill-opacity:1;stroke:#ff0;stroke-width:.264999;stroke-linecap:round;stroke-linejoin:miter;stroke-miterlimit:4;stroke-dasharray:none;stroke-opacity:1" id="path1349-1" d="M 63.571167,339.54387 74.701828,320.265 85.832489,339.54387 Z" transform="matrix(0.77080989,0,0,0.77080989,-11.733546,-62.159169)"/><path style="fill:none;fill-opacity:1;stroke:#ff0;stroke-width:.264999;stroke-linecap:round;stroke-linejoin:miter;stroke-miterlimit:4;stroke-dasharray:none;stroke-opacity:1" id="path1349-1-3" d="m 100.32073,339.54387 11.13066,-19.27887 11.13066,19.27887 z" transform="matrix(0.77080989,0,0,0.77080989,-11.733546,-62.159169)"/><path style="fill:none;stroke:#ff0;stroke-width:.40005;stroke-linecap:round;stroke-linejoin:miter;stroke-miterlimit:4;stroke-dasharray:none;stroke-opacity:1" id="path1396" d="m 44.86076,190.94921 c -0.607012,0.83768 -1.213985,1.6753 -1.2169,2.44625 -0.0029,0.77095 0.597978,1.47503 0.767817,2.01212 0.169839,0.53708 -0.09115,0.90733 -0.352123,1.27754"/><path style="fill:none;stroke:#ff0;stroke-width:.40005;stroke-linecap:round;stroke-linejoin:miter;stroke-miterlimit:4;stroke-dasharray:none;stroke-opacity:1" id="path1396-6" d="m 46.061612,190.95887 c -0.607012,0.83768 -1.21398,1.67529 -1.216898,2.44625 -0.0029,0.77095 0.597971,1.47502 0.767813,2.01211 0.169841,0.53709 -0.09115,0.90734 -0.352121,1.27755"/><path style="fill:none;stroke:#ff0;stroke-width:.40005;stroke-linecap:round;stroke-linejoin:miter;stroke-miterlimit:4;stroke-dasharray:none;stroke-opacity:1" id="path1396-7" d="m 47.463723,190.94066 c -0.607007,0.83767 -1.21398,1.67529 -1.216898,2.44625 -0.0029,0.77095 0.597971,1.47502 0.767813,2.01211 0.169841,0.53709 -0.09114,0.90733 -0.352121,1.27755"/><path style="fill:none;stroke:#ff0;stroke-width:.40005;stroke-linecap:round;stroke-linejoin:miter;stroke-miterlimit:4;stroke-dasharray:none;stroke-opacity:1" id="path1428" d="m 41.874445,197.72306 h 7.647882"/><path style="fill:none;stroke:#ff0;stroke-width:.293709px;stroke-linecap:butt;stroke-linejoin:miter;stroke-opacity:1" id="path1434" d="m 73.497594,193.31026 c -0.198163,0.41818 -0.396244,0.83619 -0.618617,0.78533 -0.222372,-0.0509 -0.469255,-0.57083 -0.716102,-0.82171 -0.246847,-0.25088 -0.493717,-0.23232 -0.66669,-0.1487 -0.172973,0.0836 -0.271732,0.23218 -0.213909,0.36223 0.05782,0.13004 0.271769,0.24145 0.423902,0.4226 0.152134,0.18115 0.242663,0.43186 0.349605,0.96111 0.106942,0.52924 0.230379,1.33701 0.753087,1.79183 0.522707,0.45482 1.444396,0.55696 2.042911,0.34494 0.598514,-0.21202 0.874186,-0.73823 1.149928,-1.26457"/><path style="fill:none;stroke:#ff0;stroke-width:.293709px;stroke-linecap:butt;stroke-linejoin:miter;stroke-opacity:1" id="path1442" d="m 76.19798,195.31224 c 0.31925,-0.47948 0.638551,-0.95904 0.761367,-1.3079 0.122817,-0.34885 0.04895,-0.5673 -0.0817,-0.64121 -0.130652,-0.0739 -0.318041,-0.003 -0.516785,0.2169 -0.198743,0.2198 -0.408593,0.58818 -0.618376,0.95645"/><path style="fill:none;stroke:#ff0;stroke-width:.293709px;stroke-linecap:butt;stroke-linejoin:miter;stroke-opacity:1" id="path1442-1" d="m 75.625839,194.75097 c 0.427245,-0.70531 0.854505,-1.41064 0.970243,-1.81734 0.115737,-0.4067 -0.0805,-0.51463 -0.237262,-0.49903 -0.156767,0.0156 -0.273621,0.15486 -0.466514,0.4778 -0.192894,0.32293 -0.461778,0.82941 -0.73061,1.3358"/><path style="fill:none;stroke:#ff0;stroke-width:.322939px;stroke-linecap:butt;stroke-linejoin:miter;stroke-opacity:1" id="path1442-4" d="m 75.161665,194.2482 c 0.481946,-0.8587 0.963986,-1.71756 1.084052,-2.22574 0.120065,-0.50817 -0.122202,-0.66556 -0.334468,-0.61383 -0.212265,0.0517 -0.393863,0.31261 -0.608715,0.71081 -0.214852,0.39819 -0.462807,0.93338 -0.710675,1.46838"/><path style="fill:none;stroke:#ff0;stroke-width:.293709px;stroke-linecap:butt;stroke-linejoin:miter;stroke-opacity:1" id="path1487" d="m 74.591805,193.58782 c 0.292958,-0.63399 0.58592,-1.26799 0.680949,-1.68074 0.09503,-0.41275 -0.0082,-0.60404 -0.162225,-0.65713 -0.154047,-0.0531 -0.358771,0.0325 -0.582389,0.32275 -0.223619,0.29023 -0.465799,0.78467 -0.708062,1.27928"/><path style="fill:none;stroke:#ff0;stroke-width:.340061;stroke-linecap:round;stroke-linejoin:miter;stroke-miterlimit:4;stroke-dasharray:none;stroke-opacity:1" id="path1491" d="m 76.762344,196.16538 -3.740817,-3.75884 v 0"/><g id="text1642" aria-label="!" style="font-style:normal;font-variant:normal;font-weight:400;font-stretch:normal;font-size:15.875px;line-height:1.25;font-family:Amiri;-inkscape-font-specification:Amiri;fill:#ff0;fill-opacity:1;stroke:none;stroke-width:.265;stroke-miterlimit:4;stroke-dasharray:none" transform="matrix(0.77080989,0,0,0.77080989,-11.733546,-62.159169)"><path d="m 38.868313,336.48727 q -0.255799,-0.26355 -0.255799,-0.61236 0,-0.34882 0.255799,-0.58911 0.26355,-0.24805 0.612366,-0.24805 0.348815,0 0.589111,0.24805 0.248047,0.24029 0.248047,0.58911 0,0.34881 -0.248047,0.61236 -0.240296,0.2558 -0.589111,0.2558 -0.348816,0 -0.612366,-0.2558 z m 0.116272,-10.20868 q 0.217041,-0.27905 0.558105,-0.27905 0.341065,0 0.511597,0.27905 0.170532,0.27906 0.170532,0.62012 0,1.65882 -0.542602,7.00733 -0.09302,0.18603 -0.248047,0.20153 -0.147278,-0.062 -0.201538,-0.17053 -0.465088,-5.34851 -0.465088,-7.03833 0,-0.34106 0.217041,-0.62012 z" style="font-style:normal;font-variant:normal;font-weight:400;font-stretch:normal;font-size:15.875px;font-family:Amiri;-inkscape-font-specification:Amiri;fill:#ff0;fill-opacity:1;stroke-width:.265;stroke-miterlimit:4;stroke-dasharray:none" id="path1644"/></g></g></svg>